<svg width="1920" height="1081" viewBox="0 0 1920 1081" fill="none" xmlns="http://www.w3.org/2000/svg"><g clip-path="url(#clip0_1382_794)"><path d="M1298.65 808.032L1226.27 772.104V644.834H1236.22V766.342L1303.16 799.652L1298.65 808.032Z" fill="#03FC9D"/><path d="M1177.67 644.834H1167.82V889.422H1177.67V644.834Z" fill="#03FC9D"/><path d="M1114.08 644.834H1104.24V737.851H1114.08V644.834Z" fill="#03FC9D"/><path d="M1118.59 825.002H997.604V644.834H1007.56V815.574H1118.59V825.002Z" fill="#03FC9D"/><path d="M952.458 644.834H942.611V889.422H952.458V644.834Z" fill="#03FC9D"/><path d="M666.914 879.155L660.838 871.717L731.125 817.981V637.5H740.971V822.59L666.914 879.155Z" fill="#03FC9D"/><path d="M812.41 637.5H802.564V756.494H812.41V637.5Z" fill="#03FC9D"/><path d="M898.304 847.206H821.209V837.779H888.458V637.5H898.304V847.206Z" fill="#03FC9D"/><path d="M1313.21 823.428C1322.3 823.428 1329.66 816.393 1329.66 807.716C1329.66 799.038 1322.3 792.003 1313.21 792.003C1304.13 792.003 1296.77 799.038 1296.77 807.716C1296.77 816.393 1304.13 823.428 1313.21 823.428Z" fill="white"/><path d="M1313.21 828.247C1301.48 828.247 1291.84 819.03 1291.84 807.822C1291.84 796.613 1301.38 787.396 1313.21 787.396C1325.05 787.396 1334.58 796.613 1334.58 807.822C1334.58 819.03 1325.05 828.247 1313.21 828.247ZM1313.21 796.823C1306.82 796.823 1301.69 801.746 1301.69 807.822C1301.69 813.897 1306.82 818.82 1313.21 818.82C1319.6 818.82 1324.74 813.897 1324.74 807.822C1324.74 801.746 1319.6 796.823 1313.21 796.823Z" fill="#03FC9D"/><path d="M1172.75 920.843C1181.83 920.843 1189.19 913.808 1189.19 905.13C1189.19 896.453 1181.83 889.418 1172.75 889.418C1163.66 889.418 1156.3 896.453 1156.3 905.13C1156.3 913.808 1163.66 920.843 1172.75 920.843Z" fill="white"/><path d="M1172.74 925.662C1161.01 925.662 1151.37 916.444 1151.37 905.236C1151.37 894.027 1160.91 884.81 1172.74 884.81C1184.58 884.81 1194.11 894.027 1194.11 905.236C1194.11 916.444 1184.58 925.662 1172.74 925.662ZM1172.74 894.237C1166.46 894.237 1161.22 899.16 1161.22 905.236C1161.22 911.311 1166.35 916.234 1172.74 916.234C1179.13 916.234 1184.27 911.311 1184.27 905.236C1184.27 899.16 1179.13 894.237 1172.74 894.237Z" fill="#03FC9D"/><path d="M1109.16 764.036C1118.24 764.036 1125.61 757.002 1125.61 748.324C1125.61 739.646 1118.24 732.612 1109.16 732.612C1100.08 732.612 1092.72 739.646 1092.72 748.324C1092.72 757.002 1100.08 764.036 1109.16 764.036Z" fill="white"/><path d="M1109.16 768.748C1097.43 768.748 1087.79 759.531 1087.79 748.322C1087.79 737.114 1097.33 727.896 1109.16 727.896C1121 727.896 1130.53 737.114 1130.53 748.322C1130.53 759.531 1121 768.748 1109.16 768.748ZM1109.16 737.324C1102.77 737.324 1097.64 742.247 1097.64 748.322C1097.64 754.398 1102.77 759.321 1109.16 759.321C1115.55 759.321 1120.69 754.398 1120.69 748.322C1120.69 742.247 1115.55 737.324 1109.16 737.324Z" fill="#03FC9D"/><path d="M1122.15 836C1131.23 836 1138.6 828.966 1138.6 820.288C1138.6 811.61 1131.23 804.576 1122.15 804.576C1113.07 804.576 1105.71 811.61 1105.71 820.288C1105.71 828.966 1113.07 836 1122.15 836Z" fill="white"/><path d="M1122.15 840.712C1110.42 840.712 1100.78 831.494 1100.78 820.286C1100.78 809.078 1110.31 799.86 1122.15 799.86C1133.99 799.86 1143.52 809.078 1143.52 820.286C1143.52 831.494 1133.99 840.712 1122.15 840.712ZM1122.15 809.287C1115.76 809.287 1110.63 814.21 1110.63 820.286C1110.63 826.361 1115.76 831.284 1122.15 831.284C1128.54 831.284 1133.67 826.361 1133.67 820.286C1133.67 814.21 1128.54 809.287 1122.15 809.287Z" fill="#03FC9D"/><path d="M807.486 779.749C816.568 779.749 823.931 772.714 823.931 764.037C823.931 755.359 816.568 748.324 807.486 748.324C798.403 748.324 791.04 755.359 791.04 764.037C791.04 772.714 798.403 779.749 807.486 779.749Z" fill="white"/><path d="M807.486 784.46C795.754 784.46 786.117 775.242 786.117 764.034C786.117 752.826 795.649 743.608 807.486 743.608C819.323 743.608 828.855 752.826 828.855 764.034C828.855 775.242 819.323 784.46 807.486 784.46ZM807.486 753.036C801.096 753.036 795.964 757.959 795.964 764.034C795.964 770.11 801.096 775.033 807.486 775.033C813.876 775.033 819.008 770.11 819.008 764.034C819.008 757.959 813.876 753.036 807.486 753.036Z" fill="#03FC9D"/><path d="M821.208 858.203C830.291 858.203 837.654 851.168 837.654 842.491C837.654 833.813 830.291 826.778 821.208 826.778C812.126 826.778 804.763 833.813 804.763 842.491C804.763 851.168 812.126 858.203 821.208 858.203Z" fill="white"/><path d="M821.209 862.92C809.477 862.92 799.84 853.702 799.84 842.494C799.84 831.286 809.372 822.068 821.209 822.068C833.045 822.068 842.577 831.286 842.577 842.494C842.577 853.702 833.045 862.92 821.209 862.92ZM821.209 831.495C814.924 831.495 809.686 836.418 809.686 842.494C809.686 848.569 814.819 853.492 821.209 853.492C827.598 853.492 832.731 848.569 832.731 842.494C832.731 836.418 827.598 831.495 821.209 831.495Z" fill="#03FC9D"/><path d="M947.536 910.577C956.618 910.577 963.981 903.543 963.981 894.865C963.981 886.187 956.618 879.153 947.536 879.153C938.453 879.153 931.09 886.187 931.09 894.865C931.09 903.543 938.453 910.577 947.536 910.577Z" fill="white"/><path d="M947.534 915.396C935.802 915.396 926.165 906.179 926.165 894.97C926.165 883.762 935.697 874.544 947.534 874.544C959.37 874.544 968.902 883.762 968.902 894.97C968.902 906.179 959.37 915.396 947.534 915.396ZM947.534 883.972C941.144 883.972 936.011 888.895 936.011 894.97C936.011 901.046 941.144 905.969 947.534 905.969C953.923 905.969 959.056 901.046 959.056 894.97C959.056 888.895 953.923 883.972 947.534 883.972Z" fill="#03FC9D"/><path d="M658.009 891.203C667.092 891.203 674.455 884.168 674.455 875.491C674.455 866.813 667.092 859.778 658.009 859.778C648.927 859.778 641.564 866.813 641.564 875.491C641.564 884.168 648.927 891.203 658.009 891.203Z" fill="white"/><path d="M658.009 895.914C646.278 895.914 636.641 886.697 636.641 875.488C636.641 864.28 646.173 855.062 658.009 855.062C669.846 855.062 679.378 864.28 679.378 875.488C679.378 886.697 669.846 895.914 658.009 895.914ZM658.009 864.49C651.725 864.49 646.487 869.413 646.487 875.488C646.487 881.564 651.62 886.487 658.009 886.487C664.399 886.487 669.532 881.564 669.532 875.488C669.532 869.413 664.399 864.49 658.009 864.49Z" fill="#03FC9D"/><path d="M1230.78 393.541C1239.78 372.906 1244.81 350.28 1244.81 326.397C1244.81 232.857 1167.82 156.914 1072.81 156.914C1008.92 156.914 953.191 191.167 923.548 242.179C898.722 224.058 867.821 213.373 834.302 213.373C752.807 213.373 686.816 276.642 686.816 354.679C686.816 368.925 689.015 382.752 693.205 395.741C621.767 402.864 566.145 460.685 566.145 530.971C566.145 601.258 622.605 659.917 694.776 666.306L694.462 666.935H1210.66C1289.85 666.935 1354.06 605.448 1354.06 529.609C1354.06 460.371 1300.54 403.073 1230.88 393.646L1230.78 393.541Z" fill="#03FC9D"/><path d="M599.769 620.426C599.769 620.426 659.266 624.197 685.977 583.764C692.367 574.022 695.405 562.081 692.576 550.768C691.319 545.426 688.805 539.979 684.196 535.579C670.474 522.381 647.744 529.085 639.783 546.368C634.441 557.891 634.755 573.813 656.962 591.515C702.004 627.653 734.371 618.121 752.283 601.361C752.283 601.361 774.385 580.412 823.722 485.405C873.058 390.398 921.976 334.252 1001.17 281.773C1001.17 281.773 1062.55 237.988 1126.45 241.864C1190.34 245.74 1183.95 298.009 1180.08 308.589C1176.83 317.388 1156.51 355.621 1092.61 324.825C1028.71 294.029 1053.75 160.579 1055.84 158.694" stroke="white" stroke-width="3.35196" stroke-linecap="round" stroke-linejoin="round"/><path d="M1336.99 463.196C1330.6 464.453 1324.11 465.605 1317.72 466.653C1311.64 467.7 1305.67 468.748 1299.49 468.852C1288.39 469.062 1279.07 464.662 1270.79 457.749C1262.93 451.15 1256.23 443.398 1248.9 436.38C1241.04 428.943 1232.77 421.925 1223.97 415.535C1206.68 402.965 1187.2 392.909 1166.04 387.986C1144.25 382.854 1121.31 383.063 1099.32 387.463C1055.53 396.157 1017.61 421.296 988.283 453.035C973.932 468.538 961.467 485.612 950.364 503.419C938.632 522.379 927.843 544.062 929.205 566.688C930.566 588.266 943.869 606.283 959.058 621.262C975.189 637.183 993.73 650.905 1013.84 662.009C1019.18 664.942 1024.74 667.56 1030.39 669.865" stroke="#003B2F" stroke-width="3.35196" stroke-linecap="round" stroke-linejoin="round"/><path d="M754.588 233.695C753.959 249.408 757.73 265.225 768.31 277.69C777.423 288.479 791.25 294.764 805.81 292.878C817.961 291.202 830.007 283.765 833.673 272.033C835.559 266.063 834.93 258.94 830.321 254.226C825.084 248.884 816.18 248.779 809.267 249.827C794.707 252.026 782.032 261.873 775.223 274.128C767.472 288.165 765.901 305.343 769.253 320.741C772.081 334.045 779.937 345.462 791.774 353.004C802.353 359.708 815.028 363.06 827.493 365.05C841.11 367.145 854.832 367.669 868.554 368.612C886.257 369.764 903.75 371.754 921.243 374.582C956.124 380.239 990.691 389.038 1023.79 401.084C1053.75 411.978 1082.97 426.119 1107.7 445.811C1130.53 464.038 1149.18 486.978 1158.92 514.107C1168.24 539.771 1170.02 568.263 1159.97 594.031C1149.49 620.846 1126.24 640.749 1100.57 654.261C1093.55 657.927 1086.43 661.279 1078.99 663.898" stroke="#003B2F" stroke-width="3.35196" stroke-linecap="round" stroke-linejoin="round"/><path d="M1068.1 157.753C1073.34 190.225 1085.17 222.383 1105.5 248.989C1115.55 262.187 1127.6 273.919 1141.53 283.451C1155.46 292.878 1171.17 299.897 1187.62 304.191C1196.84 306.496 1206.37 307.962 1215.8 308.486C1220.4 308.695 1225.01 308.695 1229.52 308.381C1231.93 308.276 1234.23 307.962 1236.64 307.753C1237.9 307.543 1239.26 307.439 1240.52 307.229C1241.04 307.229 1241.56 307.124 1241.98 307.02" stroke="#003B2F" stroke-width="3.35196" stroke-linecap="round" stroke-linejoin="round"/><path d="M635.071 648.396C660.001 624.513 673.304 592.251 677.599 559.045C681.788 526.154 677.808 492.216 667.333 460.686C661.362 442.879 653.297 425.7 643.241 409.778" stroke="#003B2F" stroke-width="3.35196" stroke-linecap="round" stroke-linejoin="round"/><path d="M1126.45 373.535V348.919H1091.67V330.274H1072.19V296.964H1046.52V330.274H1022.64V296.964H996.976V330.274H973.094V296.964H947.43V330.274H923.548V296.964H897.884V330.274H874.106V296.964H848.338V330.274H828.855V348.919H794.078V373.535H828.855V396.37H794.078V420.986H828.855V443.821H794.078V468.437H828.855V491.273H794.078V515.889H828.855V538.724H794.078V563.34H828.855V581.985H848.338V615.295H874.106V581.985H897.884V615.295H923.548V581.985H947.43V615.295H973.094V581.985H996.976V615.295H1022.64V581.985H1046.52V615.295H1072.19V581.985H1091.67V563.34H1126.45V538.724H1091.67V515.889H1126.45V491.273H1091.67V468.437H1126.45V443.821H1091.67V420.986H1126.45V396.37H1091.67V373.535H1126.45Z" fill="#003B2F"/><path d="M1059.93 360.647H860.697V551.499H1059.93V360.647Z" fill="#E6E8EA"/><path d="M1033.64 385.893H886.989V526.361H1033.64V385.893Z" fill="#003B2F"/><path d="M970.16 483.937V439.628C970.16 428.316 961.151 419.307 949.838 419.307V490.536C949.838 500.906 957.904 509.391 968.274 509.391H969.217C973.93 509.915 979.168 508.448 982.939 505.096C971.102 504.154 970.16 497.031 970.16 483.832V483.937Z" fill="white"/><path d="M926.689 400.347C916.738 400.347 908.253 408.832 908.253 419.202H991.319C1001.69 419.202 1009.75 410.717 1009.75 400.347C1010.28 400.347 926.689 400.347 926.689 400.347Z" fill="white"/><path d="M1124.35 663.791C1124.35 663.791 1170.86 575.069 1216.22 555.9C1261.57 536.731 1306.4 534.217 1317.51 563.651C1328.61 593.085 1294.67 617.911 1234.76 597.066C1174.84 576.221 1153.68 562.289 1170.02 506.877C1186.36 451.465 1267.02 403.805 1267.02 403.805" stroke="white" stroke-width="3.35196" stroke-linecap="round" stroke-linejoin="round"/></g><path d="M167.499 173.399H342.997C355.157 173.399 365.021 183.263 365.021 195.423C365.021 207.582 355.157 217.447 342.997 217.447H167.499C155.34 217.447 145.475 207.582 145.475 195.423C145.475 183.254 155.34 173.399 167.499 173.399Z" fill="#03FC9D"/><path d="M228.214 205.249H440.903C460.253 205.249 475.947 220.934 475.947 240.293C475.947 259.643 460.262 275.338 440.903 275.338H228.214C208.864 275.338 193.17 259.652 193.17 240.293C193.179 220.934 208.864 205.249 228.214 205.249Z" fill="#03FC9D"/><path d="M410.615 156.075L423.292 168.762" stroke="#003B2F" stroke-width="2.77614" stroke-miterlimit="10" stroke-linecap="round" stroke-linejoin="round"/><path d="M432.564 178.035L445.251 190.712" stroke="#003B2F" stroke-width="2.77614" stroke-miterlimit="10" stroke-linecap="round" stroke-linejoin="round"/><path d="M410.615 190.712L423.292 178.035" stroke="#003B2F" stroke-width="2.77614" stroke-miterlimit="10" stroke-linecap="round" stroke-linejoin="round"/><path d="M432.564 168.762L445.251 156.075" stroke="#003B2F" stroke-width="2.77614" stroke-miterlimit="10" stroke-linecap="round" stroke-linejoin="round"/><path d="M1531.17 704.307H1574.29" stroke="#003B2F" stroke-width="2.77614" stroke-miterlimit="10" stroke-linecap="round" stroke-linejoin="round"/><path d="M1457.34 669.865H1691.24" stroke="#03FC9D" stroke-width="2.77614" stroke-miterlimit="10" stroke-linecap="round" stroke-linejoin="round"/><path d="M1612.22 704.14H1742.59" stroke="#003B2F" stroke-width="2.77614" stroke-miterlimit="10" stroke-linecap="round" stroke-linejoin="round"/><path d="M1698.23 343.186H1642.86C1660.42 343.186 1674.64 328.973 1674.64 311.409C1674.64 293.844 1660.42 279.631 1642.86 279.631H1483.7C1466.14 279.631 1451.93 293.844 1451.93 311.409H1403.12C1385.56 311.409 1371.34 325.621 1371.34 343.186C1371.34 360.751 1385.56 374.963 1403.12 374.963H1507.3C1507.3 392.528 1521.52 406.741 1539.08 406.741H1698.23C1715.8 406.741 1730.01 392.528 1730.01 374.963C1730.01 357.399 1715.8 343.186 1698.23 343.186Z" fill="#E6E8EA"/><path d="M1445.86 363.664L1468.81 376.886" stroke="#003B2F" stroke-width="3" stroke-linecap="round" stroke-linejoin="round"/><path d="M1491.75 363.664L1478.34 371.442" stroke="#003B2F" stroke-width="3" stroke-linecap="round" stroke-linejoin="round"/><path d="M1468.81 376.886V403.718" stroke="#003B2F" stroke-width="3" stroke-linecap="round" stroke-linejoin="round"/><path d="M154.592 855.838H192.345" stroke="#003B2F" stroke-width="3" stroke-linecap="round" stroke-linejoin="round"/><path d="M241.103 797.718H514.525" stroke="#03FC9D" stroke-width="3" stroke-linecap="round" stroke-linejoin="round"/><path d="M241.103 855.633H393.964" stroke="#003B2F" stroke-width="3" stroke-linecap="round" stroke-linejoin="round"/><path d="M350.603 483.102L360.285 505.177" stroke="#003B2F" stroke-width="3" stroke-linecap="round" stroke-linejoin="round"/><path d="M367.361 521.309L377.083 543.282" stroke="#003B2F" stroke-width="3" stroke-linecap="round" stroke-linejoin="round"/><path d="M333.722 526.361L355.757 516.78" stroke="#003B2F" stroke-width="3" stroke-linecap="round" stroke-linejoin="round"/><path d="M371.889 509.705L393.964 500.022" stroke="#003B2F" stroke-width="3" stroke-linecap="round" stroke-linejoin="round"/><path d="M553.807 732.612C560.621 732.612 566.145 727.088 566.145 720.274C566.145 713.46 560.621 707.937 553.807 707.937C546.994 707.937 541.47 713.46 541.47 720.274C541.47 727.088 546.994 732.612 553.807 732.612Z" stroke="#003B2F" stroke-width="3" stroke-linecap="round" stroke-linejoin="round"/><path d="M1497.33 891.203L1531.25 871.59" stroke="#003B2F" stroke-width="3" stroke-linecap="round" stroke-linejoin="round"/><path d="M1565.01 891.203L1545.08 879.628" stroke="#003B2F" stroke-width="3" stroke-linecap="round" stroke-linejoin="round"/><path d="M1531.25 871.591V832.045" stroke="#003B2F" stroke-width="3" stroke-linecap="round" stroke-linejoin="round"/><path d="M606.703 119.23H796.191" stroke="#03FC9D" stroke-width="3.15813" stroke-miterlimit="10" stroke-linecap="round" stroke-linejoin="round"/><path d="M753.03 156.075H898.304" stroke="#003B2F" stroke-width="3.15813" stroke-miterlimit="10" stroke-linecap="round" stroke-linejoin="round"/><defs><clipPath id="clip0_1382_794"><rect width="787.919" height="769.588" fill="white" transform="translate(566.04 156.075)"/></clipPath></defs></svg>